<svg width="50" height="50" viewBox="0 0 50 50" fill="none" xmlns="http://www.w3.org/2000/svg">
<path d="M50 24.9023C50 22.8562 48.3353 21.1914 46.2891 21.1914H44.5187C43.948 18.9001 42.238 16.9966 39.9759 16.2137C37.9205 15.5024 36.5396 13.5632 36.5396 11.3883V10.9315C37.4178 11.7318 38.5848 12.2205 39.8638 12.2205C40.403 12.2205 40.8403 11.7832 40.8403 11.2439C40.8403 10.7047 40.403 10.2674 39.8638 10.2674C38.2651 10.2674 36.956 9.00488 36.8805 7.42461L38.0891 6.36592H42.9094C43.9113 6.36592 44.7265 5.55068 44.7265 4.54883V1.81709C44.7266 0.815234 43.9113 0 42.9095 0H29.9304C25.9122 0 22.6433 3.26904 22.6433 7.28711V8.479C22.6433 8.83916 22.8414 9.16992 23.1589 9.33994C23.3033 9.41719 23.4617 9.45557 23.6197 9.45557C23.8091 9.45557 23.9979 9.40059 24.1613 9.2917C25.1772 8.61484 26.3595 8.25703 27.5801 8.25703H27.6947V11.2061C26.4389 14.4094 25.643 17.7632 25.3243 21.1914H22.2656V15.433C22.2656 13.4769 20.8767 11.7629 18.9705 11.3591C18.9681 11.3585 18.9607 11.357 18.9583 11.3564C18.2225 11.2006 17.6345 10.6797 17.3649 10.0102C17.7366 9.87207 18.002 9.51523 18.002 9.09551V4.88281C18.002 4.49209 17.7719 4.15586 17.4402 3.99971V1.85547C17.4402 0.832324 16.6079 0 15.5848 0H11.3684C10.3452 0 9.51289 0.832324 9.51289 1.85547V3.99971C9.18135 4.15586 8.95117 4.49209 8.95117 4.88281V9.09551C8.95117 9.51328 9.21396 9.86875 9.58291 10.0082C9.31387 10.6788 8.72549 11.2008 7.98896 11.357C6.07598 11.7628 4.6875 13.4768 4.6875 15.4322V21.1914H3.71094C1.66475 21.1914 0 22.8562 0 24.9023C0 26.44 0.940234 27.7622 2.27598 28.3244L4.7873 44.5155C5.02402 46.0421 5.80049 47.4362 6.97353 48.4414C8.14648 49.4465 9.64316 50 11.1879 50H20.6055C21.1447 50 21.582 49.5627 21.582 49.0234C21.582 48.4842 21.1447 48.0469 20.6055 48.0469H11.1879C8.9417 48.0469 7.06152 46.4358 6.71729 44.2162L4.29727 28.6133H12.487V35.1269C12.487 36.7437 13.8024 38.059 15.4192 38.059C15.755 38.059 16.0774 38.0015 16.3781 37.8971V40.3314C16.3781 41.9482 17.6936 43.2636 19.3104 43.2636C19.6894 43.2636 20.0515 43.1904 20.3843 43.059C20.7133 44.3184 21.8605 45.2505 23.2216 45.2505C24.5825 45.2505 25.7298 44.3184 26.0588 43.059C26.3917 43.1905 26.7538 43.2637 27.1329 43.2637C28.7497 43.2637 30.065 41.9482 30.065 40.3315V34.6198C30.4823 34.8092 30.945 34.9156 31.4324 34.9156C33.2633 34.9156 34.7527 33.4262 34.7527 31.5953V28.6133H45.7027L43.2827 44.2162C42.9384 46.4358 41.0583 48.0469 38.8121 48.0469H29.3945C28.8553 48.0469 28.418 48.4842 28.418 49.0234C28.418 49.5627 28.8553 50 29.3945 50H38.8121C40.3568 50 41.8536 49.4465 43.0266 48.4414C44.1996 47.4362 44.9761 46.0421 45.2128 44.5156L47.7241 28.3244C49.0598 27.7622 50 26.44 50 24.9023ZM42.7734 4.41289H40.8522V1.95312H42.7734V4.41289ZM24.613 6.86455C24.829 4.12002 27.1313 1.95312 29.9304 1.95312H38.8991V4.41289H37.7218C37.4851 4.41289 37.2563 4.49893 37.0783 4.65488L35.1957 6.3041H27.5801C26.5561 6.304 25.5524 6.49531 24.613 6.86455ZM34.5864 8.25713V10.4117H29.6479V8.25713H34.5864ZM29.3403 12.3648H34.6541C35.0167 14.9633 36.8074 17.184 39.337 18.0595C40.8166 18.5715 41.9697 19.7461 42.4823 21.1914H27.2862C27.5831 18.1674 28.2715 15.2054 29.3403 12.3648ZM10.9043 5.85938H16.0488V8.11895H10.9043V5.85938ZM11.466 1.95312H15.4871V3.90625H11.466V1.95312ZM6.64062 15.4322C6.64062 14.3935 7.37822 13.4831 8.39434 13.2676C10.0137 12.9241 11.2571 11.6434 11.6008 10.072H15.3462C15.6898 11.6435 16.9326 12.9237 18.5462 13.2655C18.5486 13.2661 18.556 13.2676 18.5584 13.2682C19.5747 13.4835 20.3125 14.394 20.3125 15.433V21.1914H6.64062V15.4322ZM3.71094 26.6602C2.7417 26.6602 1.95312 25.8716 1.95312 24.9023C1.95312 23.9331 2.7417 23.1445 3.71094 23.1445H12.4869V26.6602H3.71094ZM32.7996 31.5953C32.7996 32.3492 32.1863 32.9625 31.4324 32.9625C30.6785 32.9625 30.0652 32.3492 30.0652 31.5953V27.8935C30.0652 27.3542 29.6279 26.9169 29.0887 26.9169H29.0886H29.0885C28.5492 26.9169 28.1119 27.3542 28.1119 27.8935V40.3315C28.1119 40.8714 27.6728 41.3105 27.1329 41.3105C26.5931 41.3105 26.1538 40.8714 26.1538 40.3315V31.7998C26.1538 31.2605 25.7165 30.8232 25.1772 30.8232C24.638 30.8232 24.2007 31.2605 24.2007 31.7998V42.3184C24.2007 42.8582 23.7615 43.2975 23.2217 43.2975C22.6818 43.2975 22.2426 42.8582 22.2426 42.3184L22.2427 31.7998C22.2427 31.2605 21.8054 30.8232 21.2661 30.8232H21.266C20.7268 30.8232 20.2895 31.2605 20.2895 31.7998V40.3335C20.2884 40.8725 19.8497 41.3106 19.3105 41.3106C18.7707 41.3106 18.3314 40.8715 18.3314 40.3316L18.3516 31.7678C18.3516 31.2285 17.9143 30.7912 17.375 30.7912C17.0263 30.7912 16.721 30.9746 16.5482 31.2496C16.4411 31.4063 16.3783 31.5957 16.3783 31.7999V35.3248C16.2866 35.7701 15.8915 36.1061 15.4194 36.1061C14.8796 36.1061 14.4403 35.6669 14.4403 35.127V23.1445H31.7989L32.7999 26.5176V31.5953H32.7996ZM46.2891 26.6602H34.7527V26.3758C34.7527 26.2817 34.7391 26.1881 34.7124 26.0979L33.8359 23.1445H46.2891C47.2583 23.1445 48.0469 23.9331 48.0469 24.9023C48.0469 25.8716 47.2583 26.6602 46.2891 26.6602Z" fill="white"/>
<path d="M25 48.0469C24.7432 48.0469 24.4912 48.1513 24.3096 48.333C24.1279 48.5147 24.0234 48.7666 24.0234 49.0234C24.0234 49.2803 24.1278 49.5322 24.3096 49.7138C24.4912 49.8954 24.7432 50 25 50C25.2568 50 25.5088 49.8955 25.6903 49.7138C25.8721 49.5322 25.9766 49.2803 25.9766 49.0234C25.9766 48.7666 25.8721 48.5146 25.6903 48.333C25.5088 48.1513 25.2568 48.0469 25 48.0469Z" fill="white"/>
</svg>
