<svg width="50" height="50" viewBox="0 0 50 50" fill="none" xmlns="http://www.w3.org/2000/svg">
<path d="M28.9062 46.0938C29.4456 46.0938 29.8828 45.6565 29.8828 45.1172C29.8828 44.5778 29.4456 44.1406 28.9062 44.1406C28.3669 44.1406 27.9297 44.5778 27.9297 45.1172C27.9297 45.6565 28.3669 46.0938 28.9062 46.0938Z" fill="white"/>
<path d="M0.976562 44.1406C0.437305 44.1406 0 44.5778 0 45.1172C0 45.6565 0.437305 46.0938 0.976562 46.0928H4.07422C3.96582 46.3994 3.90625 46.7279 3.90625 47.0703C3.90625 48.6857 5.22051 50 6.83594 50C8.45137 50 9.76562 48.6857 9.76562 47.0703C9.76562 46.7279 9.70605 46.3994 9.59766 46.0938H24.1217C24.5754 48.3198 26.5481 50 28.9062 50C31.5986 50 33.7891 47.8096 33.7891 45.1172C33.7891 42.7592 32.1089 40.7863 29.8828 40.3326V22.0703H31.8359V36.7188C31.8359 37.2581 32.2732 37.6953 32.8125 37.6953H45.1172C45.6564 37.6953 46.0938 37.2581 46.0938 36.7188V21.0938C46.0938 20.5544 45.6564 20.1172 45.1172 20.1172C43.3013 20.1172 31.3604 20.1172 29.8828 20.1172V15.2344C29.8828 14.6959 30.3209 14.2578 30.8594 14.2578H40.2344V15.2344C40.2344 15.7737 40.6717 16.2109 41.2109 16.2109H47.0703C48.6857 16.2109 50 14.8967 50 13.2812C50 11.6658 48.6857 10.3516 47.0703 10.3516H41.2109C40.6717 10.3516 40.2344 10.7888 40.2344 11.3281V12.3047H30.8594C29.2439 12.3047 27.9297 13.6189 27.9297 15.2344V40.3326C26.0192 40.722 24.511 42.2302 24.1217 44.1406H22.0703V35.9673C24.5577 33.5773 25.9766 30.317 25.9766 26.9531V25C25.9766 24.4606 25.5393 24.0234 25 24.0234C23.519 24.0234 19.3481 24.0234 17.8711 24.0234V16.6016C17.8711 16.0622 17.4338 15.625 16.8945 15.625C16.3553 15.625 15.918 16.0622 15.918 16.6016V24.0234H11.7188V17.4102C12.8554 17.007 13.6719 15.9216 13.6719 14.6484V13.6719H14.6484C16.2639 13.6719 17.5781 12.3576 17.5781 10.7422V4.88281C17.5781 2.19043 15.3877 0 12.6953 0H0.976562C0.437305 0 0 0.437207 0 0.976562C0 1.51592 0.437305 1.95312 0.976562 1.95312C2.59199 1.95312 3.90625 3.26738 3.90625 4.88281V10.7422C3.90625 12.3576 5.22051 13.6719 6.83594 13.6719H7.8125V14.6484C7.8125 15.9215 8.629 17.007 9.76562 17.4102V24.0234C6.53984 24.0234 4.26094 24.0234 0.976562 24.0234C0.437305 24.0234 0 24.4606 0 25V26.9531C0 30.3173 1.41904 33.5777 3.90625 35.9674V44.1406H0.976562ZM44.1406 31.8359H33.7891V29.8828H44.1406V31.8359ZM33.7891 35.7422V33.7891H44.1406V35.7422H33.7891ZM44.1406 27.9297H33.7891V22.0703H44.1406V27.9297ZM42.1875 12.3047H47.0703C47.6088 12.3047 48.0469 12.7428 48.0469 13.2812C48.0469 13.8197 47.6088 14.2578 47.0703 14.2578H42.1875V12.3047ZM5.85938 10.7422V4.88281C5.85938 3.78457 5.49482 2.76973 4.88057 1.95312H6.83594C8.45137 1.95312 9.76562 3.26738 9.76562 4.88281V6.83594C9.76562 7.37529 10.2029 7.8125 10.7422 7.8125C11.2814 7.8125 11.7188 7.37529 11.7188 6.83594V4.88281C11.7188 3.78437 11.354 2.76982 10.7396 1.95312H12.6953C14.3107 1.95312 15.625 3.26738 15.625 4.88281V10.7422C15.625 11.2807 15.1869 11.7188 14.6484 11.7188H6.83594C6.29746 11.7188 5.85938 11.2807 5.85938 10.7422ZM11.7188 13.6719V14.6484C11.7188 15.1869 11.2807 15.625 10.7422 15.625C10.2037 15.625 9.76562 15.1869 9.76562 14.6484V13.6719H11.7188ZM7.8125 47.0703C7.8125 47.6088 7.37441 48.0469 6.83594 48.0469C6.29746 48.0469 5.85938 47.6088 5.85938 47.0703C5.85938 46.5318 6.29746 46.0938 6.83594 46.0938C7.37441 46.0938 7.8125 46.5318 7.8125 47.0703ZM28.9062 42.1875C30.5217 42.1875 31.8359 43.5018 31.8359 45.1172C31.8359 46.7326 30.5217 48.0469 28.9062 48.0469C27.2908 48.0469 25.9766 46.7326 25.9766 45.1172C25.9766 43.5018 27.2908 42.1875 28.9062 42.1875ZM24.0234 26.9531C24.0234 29.1068 23.3287 31.2133 22.0703 32.9889V25.9766H24.0234V26.9531ZM20.1172 27.9297H17.3828C16.8436 27.9297 16.4062 28.3669 16.4062 28.9062C16.4062 29.4456 16.8436 29.8828 17.3828 29.8828H20.1172V35.096C18.1025 36.7749 15.5878 37.6953 12.9883 37.6953C10.3889 37.6953 7.87432 36.775 5.85938 35.096V29.8828H8.59375C9.13301 29.8828 9.57031 29.4456 9.57031 28.9062C9.57031 28.3669 9.13301 27.9297 8.59375 27.9297H5.85938V25.9766H20.1172V27.9297ZM1.95312 26.9531V25.9766H3.90625V32.9889C2.64785 31.2135 1.95312 29.1069 1.95312 26.9531ZM5.85938 37.5206C7.97871 38.9028 10.4482 39.6484 12.9883 39.6484C15.5284 39.6484 17.998 38.9027 20.1172 37.5207V44.1406H5.85938V37.5206Z" fill="white"/>
<path d="M12.9883 29.8828C13.5276 29.8828 13.9648 29.4456 13.9648 28.9062C13.9648 28.3669 13.5276 27.9297 12.9883 27.9297C12.4489 27.9297 12.0117 28.3669 12.0117 28.9062C12.0117 29.4456 12.4489 29.8828 12.9883 29.8828Z" fill="white"/>
</svg>
