<svg width="50" height="50" viewBox="0 0 50 50" fill="none" xmlns="http://www.w3.org/2000/svg">
<g clip-path="url(#clip0_58_54)">
<path d="M49.8637 24.5022L45.0039 16.2991C44.828 16.0023 44.5087 15.8203 44.1637 15.8203H0.976562C0.437207 15.8203 0 16.2575 0 16.7969V20.6055C0 21.1448 0.437207 21.582 0.976562 21.582C1.51592 21.582 1.95312 21.1448 1.95312 20.6055V17.7734H12.9967L17.2779 25L12.9967 32.2266H1.95312V29.3945C1.95312 28.8552 1.51592 28.418 0.976562 28.418C0.437207 28.418 0 28.8552 0 29.3945V33.2031C0 33.7425 0.437207 34.1797 0.976562 34.1797H44.1637C44.5086 34.1797 44.828 33.9977 45.0039 33.7009L49.8637 25.4978C50.0455 25.1908 50.0455 24.8092 49.8637 24.5022ZM19.2531 25.4978C19.435 25.1908 19.435 24.8092 19.2531 24.5022L15.2668 17.7734H28.0125L32.2938 25L28.0125 32.2266H15.2668L19.2531 25.4978ZM43.6071 32.2266H30.2826L34.269 25.4978C34.4509 25.1908 34.4509 24.8092 34.269 24.5022L30.2826 17.7734H43.6071L47.8884 25L43.6071 32.2266Z" fill="white"/>
<path d="M28.1402 24.1966C28.5216 23.8153 28.5216 23.1969 28.1402 22.8156C27.759 22.4342 27.1408 22.4342 26.7591 22.8156L24.3246 25.25L23.3722 24.2977C22.9909 23.9163 22.3725 23.9163 21.9911 24.2977C21.6097 24.679 21.6097 25.2974 21.9911 25.6788L23.634 27.3217C23.8247 27.5124 24.0746 27.6077 24.3245 27.6077C24.5744 27.6077 24.8244 27.5123 25.015 27.3217L28.1402 24.1966Z" fill="white"/>
<path d="M42.0679 22.8154L39.6334 25.2499L38.6811 24.2976C38.2996 23.9162 37.6815 23.9162 37.2999 24.2976C36.9186 24.6789 36.9186 25.2973 37.2999 25.6787L38.9428 27.3216C39.1335 27.5123 39.3834 27.6076 39.6333 27.6076C39.8832 27.6076 40.1331 27.5123 40.3239 27.3216L43.4489 24.1966C43.8302 23.8152 43.8302 23.1969 43.4489 22.8154C43.0676 22.4341 42.4494 22.4341 42.0679 22.8154Z" fill="white"/>
<path d="M8.47996 27.6075C8.72986 27.6075 8.97986 27.5121 9.17048 27.3215L12.2955 24.1965C12.6768 23.8151 12.6768 23.1968 12.2955 22.8153C11.9141 22.434 11.2958 22.434 10.9143 22.8153L8.47986 25.2498L7.52742 24.2974C7.14607 23.9161 6.52771 23.9161 6.14636 24.2974C5.76501 24.6788 5.76501 25.2971 6.14636 25.6785L7.78933 27.3214C7.98015 27.5122 8.23005 27.6075 8.47996 27.6075Z" fill="white"/>
<path d="M0.976562 25.9769C1.5159 25.9769 1.95312 25.5397 1.95312 25.0004C1.95312 24.461 1.5159 24.0238 0.976562 24.0238C0.437222 24.0238 0 24.461 0 25.0004C0 25.5397 0.437222 25.9769 0.976562 25.9769Z" fill="white"/>
</g>
<defs>
<clipPath id="clip0_58_54">
<rect width="50" height="50" fill="white"/>
</clipPath>
</defs>
</svg>
