<svg width="50" height="50" viewBox="0 0 50 50" fill="none" xmlns="http://www.w3.org/2000/svg">
<path d="M49.0234 16.2109C49.5628 16.2109 50 15.7737 50 15.2344C50 14.695 49.5628 14.2578 49.0234 14.2578C48.4841 14.2578 48.0469 14.695 48.0469 15.2344C48.0469 15.7737 48.4841 16.2109 49.0234 16.2109Z" fill="white"/>
<path d="M49.0234 24.0234C49.5628 24.0234 50 23.5862 50 23.0469C50 22.5075 49.5628 22.0703 49.0234 22.0703C48.4841 22.0703 48.0469 22.5075 48.0469 23.0469C48.0469 23.5862 48.4841 24.0234 49.0234 24.0234Z" fill="white"/>
<path d="M49.0234 31.8359C49.5628 31.8359 50 31.3987 50 30.8594C50 30.32 49.5628 29.8828 49.0234 29.8828C48.4841 29.8828 48.0469 30.32 48.0469 30.8594C48.0469 31.3987 48.4841 31.8359 49.0234 31.8359Z" fill="white"/>
<path d="M0.976562 29.8828H3.90625V36.7188C3.90625 38.3342 5.22051 39.6484 6.83594 39.6484C8.45137 39.6484 9.76562 38.3342 9.76562 36.7188C9.76562 36.1803 10.2037 35.7422 10.7422 35.7422H11.63C11.6889 36.141 11.7188 36.5447 11.7188 36.9492V47.0703C11.7188 48.6857 13.033 50 14.6484 50H22.4609C23.0002 50 23.4375 49.5628 23.4375 49.0234C23.4375 46.6654 21.7572 44.6925 19.5312 44.2387V36.9492C19.5312 36.5449 19.5612 36.1413 19.6201 35.7422H22.4609C25.1533 35.7422 27.3438 33.5518 27.3438 30.8594C27.3438 29.4653 27.3438 25.4146 27.3438 24.0234H29.1016C29.6408 24.0234 30.0781 23.5862 30.0781 23.0469C30.0781 22.5075 29.6408 22.0703 29.1016 22.0703C27.1304 22.0703 22.9958 22.0703 21.4844 22.0703V17.1875C21.4844 16.0892 21.1196 15.0745 20.5052 14.2578H20.5078C21.0471 14.2578 21.4844 13.8206 21.4844 13.2812V2.92969C21.4844 1.31426 20.1701 0 18.5547 0H14.6484C11.9561 0 9.76562 2.19043 9.76562 4.88281V12.3047H5.85938V7.8125H6.83594C7.3752 7.8125 7.8125 7.37529 7.8125 6.83594C7.8125 6.29658 7.3752 5.85938 6.83594 5.85938H2.92969C2.39043 5.85938 1.95312 6.29658 1.95312 6.83594C1.95312 7.37529 2.39043 7.8125 2.92969 7.8125H3.90625V12.3047H0.976562C0.437305 12.3047 0 12.7419 0 13.2812V28.9062C0 29.4456 0.437305 29.8828 0.976562 29.8828ZM1.95312 18.1641H5.85938V20.1172H1.95312V18.1641ZM7.8125 36.7188C7.8125 37.2572 7.37441 37.6953 6.83594 37.6953C6.29746 37.6953 5.85938 37.2572 5.85938 36.7188V29.8828H9.83818C9.97812 31.0521 10.3192 32.198 10.8455 33.2498C10.9339 33.4264 11.0152 33.6064 11.0906 33.7891H10.7422C9.12676 33.7891 7.8125 35.1033 7.8125 36.7188ZM18.6581 32.3752C17.9464 33.7961 17.5781 35.3714 17.5781 36.9492V39.6484H13.6719V36.9492C13.6719 35.4228 13.3265 33.8418 12.5921 32.3755C12.0208 31.2337 11.7188 29.9544 11.7188 28.6758V26.9505C12.5354 27.5649 13.5501 27.9297 14.6484 27.9297H19.5312V28.6758C19.5312 29.9544 19.2292 31.2337 18.6581 32.3752ZM21.317 48.0469H14.6484C14.11 48.0469 13.6719 47.6088 13.6719 47.0703V41.6016H17.5781V45.1172C17.5781 45.6565 18.0154 46.0938 18.5547 46.0938C19.8278 46.0938 20.914 46.9101 21.317 48.0469ZM22.4609 33.7891H20.1593C20.2348 33.6064 20.3161 33.4262 20.4046 33.2495C21.111 31.8378 21.4844 30.2563 21.4844 28.6758V27.9297H25.3906V30.8594C25.3906 32.4748 24.0764 33.7891 22.4609 33.7891ZM19.5312 17.1875V22.0703H18.5547C18.0162 22.0703 17.5781 21.6322 17.5781 21.0938V17.1875C17.5781 16.6481 17.1408 16.2109 16.6016 16.2109C16.0623 16.2109 15.625 16.6481 15.625 17.1875V21.0938C15.625 22.7092 16.9393 24.0234 18.5547 24.0234H25.3906V25.9766H14.6484C13.033 25.9766 11.7188 24.6623 11.7188 23.0469C11.7188 21.9463 11.7188 15.2003 11.7188 14.2578H16.6016C18.217 14.2578 19.5312 15.5721 19.5312 17.1875ZM17.5781 9.375V5.85938H19.5312V12.1367C18.3946 11.7336 17.5781 10.648 17.5781 9.375ZM11.7188 4.88281C11.7188 3.26738 13.033 1.95312 14.6484 1.95312H18.5547C19.0932 1.95312 19.5312 2.39121 19.5312 2.92969V3.90625H16.6016C16.0623 3.90625 15.625 4.34346 15.625 4.88281V9.375C15.625 10.4733 15.9897 11.488 16.6042 12.3047H11.7188V4.88281ZM9.76562 14.2578V27.9297H1.95312V22.0703H6.83594C7.3752 22.0703 7.8125 21.6331 7.8125 21.0938V17.1875C7.8125 16.6481 7.3752 16.2109 6.83594 16.2109H1.95312V14.2578H9.76562Z" fill="white"/>
<path d="M36.7188 23.8282L44.5312 29.6876C44.9602 30.0092 45.5729 29.9263 45.8984 29.4922C46.222 29.0608 46.1346 28.4486 45.7031 28.1251L40.2344 24.0235H45.1172C45.6564 24.0235 46.0938 23.5863 46.0938 23.0469C46.0938 22.5076 45.6564 22.0704 45.1172 22.0704H40.2344L45.7031 17.9688C46.1346 17.6453 46.222 17.0331 45.8984 16.6016C45.5749 16.1702 44.9628 16.0827 44.5312 16.4063L36.7188 22.2657C36.4729 22.4502 36.3281 22.7396 36.3281 23.0469C36.3281 23.3543 36.4729 23.6437 36.7188 23.8282Z" fill="white"/>
<path d="M33.4961 24.0234C34.0354 24.0234 34.4727 23.5862 34.4727 23.0469C34.4727 22.5075 34.0354 22.0703 33.4961 22.0703C32.9568 22.0703 32.5195 22.5075 32.5195 23.0469C32.5195 23.5862 32.9568 24.0234 33.4961 24.0234Z" fill="white"/>
</svg>
