<svg width="50" height="50" viewBox="0 0 50 50" fill="none" xmlns="http://www.w3.org/2000/svg">
<path d="M30.2734 18.5547C29.7344 18.5547 29.2969 18.9922 29.2969 19.5312C29.2969 20.0703 29.7344 20.5078 30.2734 20.5078C30.8125 20.5078 31.25 20.0703 31.25 19.5312C31.25 18.9922 30.8125 18.5547 30.2734 18.5547Z" fill="white"/>
<path d="M48.8556 43.3319L35.8204 30.2968C37.9439 27.0981 39.0625 23.394 39.0625 19.5312C39.0625 8.76172 30.3008 0 19.5312 0C8.76172 0 0 8.76172 0 19.5312C0 30.3008 8.76172 39.0625 19.5312 39.0625C23.3941 39.0625 27.0982 37.9438 30.2968 35.8205L33.8998 39.4235C33.9003 39.424 33.9008 39.4245 33.9014 39.4251L43.3318 48.8556C44.0699 49.5936 45.0507 50 46.0938 50C47.1368 50 48.1176 49.5936 48.8553 48.8559C49.5935 48.1183 50 47.1374 50 46.0938C50 45.0501 49.5935 44.0692 48.8556 43.3319ZM29.8375 33.7624C29.8375 33.7625 29.8374 33.7625 29.8373 33.7626C26.8229 35.9521 23.2593 37.1094 19.5312 37.1094C9.83867 37.1094 1.95312 29.2238 1.95312 19.5312C1.95312 9.83867 9.83867 1.95312 19.5312 1.95312C29.2238 1.95312 37.1094 9.83867 37.1094 19.5312C37.1094 23.2593 35.952 26.823 33.7625 29.8374C32.6671 31.3465 31.3466 32.6671 29.8375 33.7624ZM31.8863 34.6478C32.8971 33.8209 33.821 32.897 34.6478 31.8863L37.4184 34.6569C36.5758 35.6514 35.6514 36.5759 34.6569 37.4184L31.8863 34.6478ZM47.4745 47.4745C47.1054 47.8437 46.615 48.0469 46.0938 48.0469C45.5725 48.0469 45.0821 47.8437 44.713 47.4745L36.0416 38.8031C37.0306 37.9544 37.9544 37.0307 38.803 36.0417L47.4747 44.7134C47.8437 45.0819 48.0469 45.5721 48.0469 46.0938C48.0469 46.6154 47.8437 47.1056 47.4745 47.4745Z" fill="white"/>
<path d="M19.5312 3.90625C10.9155 3.90625 3.90625 10.9155 3.90625 19.5312C3.90625 28.147 10.9155 35.1562 19.5312 35.1562C28.147 35.1562 35.1562 28.147 35.1562 19.5312C35.1562 10.9155 28.147 3.90625 19.5312 3.90625ZM19.5312 33.2031C11.9926 33.2031 5.85938 27.0699 5.85938 19.5312C5.85938 11.9926 11.9926 5.85938 19.5312 5.85938C27.0699 5.85938 33.2031 11.9926 33.2031 19.5312C33.2031 27.0699 27.0699 33.2031 19.5312 33.2031Z" fill="white"/>
<path d="M30.4751 15.3392C29.6342 13.1505 28.17 11.2792 26.2407 9.92773C24.2655 8.54395 21.9454 7.8125 19.5312 7.8125C18.992 7.8125 18.5547 8.2498 18.5547 8.78906C18.5547 9.32832 18.992 9.76563 19.5312 9.76563C23.5448 9.76563 27.2101 12.2869 28.652 16.0397C28.8012 16.428 29.1712 16.6663 29.5638 16.6663C29.6802 16.6663 29.7986 16.6453 29.9138 16.6011C30.4172 16.4076 30.6686 15.8427 30.4751 15.3392Z" fill="white"/>
</svg>
