<svg width="40" height="34" viewBox="0 0 40 34" fill="none" xmlns="http://www.w3.org/2000/svg">
<path d="M15.3125 17.3898C14.881 17.3898 14.5312 17.7397 14.5312 18.1711C14.5312 18.6025 14.881 18.9524 15.3125 18.9524H24.6877C25.1192 18.9524 25.469 18.6025 25.469 18.1711C25.469 17.7397 25.1192 17.3898 24.6877 17.3898H23.1252V4.10829C23.1252 3.67688 22.7754 3.32703 22.3439 3.32703H17.6563C17.4461 3.32703 17.2447 3.41179 17.0977 3.56211L14.7539 5.95904C14.6112 6.10498 14.5312 6.30107 14.5312 6.50522V8.87402C14.5312 9.30544 14.881 9.65529 15.3125 9.65529H16.8751V17.3898H15.3125ZM16.0938 8.09275V6.82366L17.9851 4.88956H21.5627V17.3898H18.4376V8.87402C18.4376 8.4426 18.0878 8.09275 17.6563 8.09275H16.0938Z" fill="#25AAE2"/>
<path d="M39.1329 1.45942C38.9959 1.13644 38.66 0.944248 38.3125 0.989796C38.119 1.01503 33.553 1.64418 31.7628 4.74574C30.4602 7.00117 31.0407 9.8453 31.5064 11.3486C29.5103 13.4423 29.5609 16.7876 29.6677 18.0831C28.3872 19.3633 27.6733 21.0994 27.332 22.151C24.2343 22.6532 21.9116 25.652 21.7262 25.8972L20.071 27.9663L18.4992 25.9051C18.3622 25.7221 15.9101 22.5084 12.6576 22.1187C12.3134 21.0669 11.6012 19.3515 10.3323 18.0831C10.4391 16.7875 10.4897 13.4418 8.49362 11.3485C8.95925 9.84522 9.53981 7.00117 8.23728 4.74581C6.44701 1.64418 1.88097 1.01503 1.68746 0.989796C1.3401 0.944561 1.00416 1.13644 0.867125 1.45942C0.79017 1.64075 -0.997212 5.93803 0.794858 9.04286C0.864469 9.16341 0.940798 9.28115 1.02072 9.39732C0.722278 9.47732 0.495164 9.72733 0.44985 10.039C0.42235 10.2283 -0.183601 14.6189 2.18184 17.1812C1.58152 17.4193 1.20455 17.6203 1.17948 17.6338C0.875016 17.7977 0.714387 18.1421 0.784623 18.4806C0.824312 18.6717 1.79308 23.1772 5.04331 24.6924C5.41597 24.8665 5.81442 24.9978 6.2356 25.0878C5.80082 25.5493 5.54902 25.8841 5.53066 25.9087C5.32386 26.1859 5.32378 26.566 5.53066 26.8432C5.64738 26.9997 8.42971 30.673 12.0163 30.673C14.6181 30.673 16.7964 28.7402 17.8412 27.619L19.065 29.224L17.0462 31.7475C16.7767 32.0844 16.8313 32.576 17.1683 32.8456C17.5037 33.114 17.9958 33.062 18.2664 32.7236L20.0416 30.5046L21.7227 32.7093C21.9856 33.0542 22.4762 33.1173 22.8177 32.8569C23.1608 32.5952 23.2268 32.105 22.9653 31.7619L21.0476 29.2471L22.364 27.6017C22.9022 28.1808 23.7482 28.9841 24.7987 29.6228C24.9255 29.6999 25.0655 29.7366 25.2039 29.7366C25.4677 29.7366 25.7252 29.603 25.8722 29.361C26.0963 28.9924 25.9791 28.5118 25.6105 28.2876C24.6114 27.6803 23.8102 26.8767 23.3625 26.3764C24.579 25.0178 26.3738 23.6416 28.2035 23.6416C30.0292 23.6416 31.8355 25.0227 33.0452 26.3759C32.6877 26.7756 32.1049 27.3686 31.3763 27.9C31.0277 28.1543 30.9511 28.643 31.2054 28.9916C31.4595 29.3402 31.9482 29.4167 32.2969 29.1626C33.732 28.1161 34.6507 26.8949 34.6892 26.8433C34.8959 26.5662 34.896 26.1861 34.6893 25.909C34.6704 25.8837 34.4036 25.5289 33.9442 25.0455C34.2989 24.958 34.6375 24.8416 34.9564 24.6928C38.2071 23.1775 39.1759 18.6719 39.2156 18.4808C39.2858 18.1423 39.1252 17.7978 38.8208 17.634C38.7956 17.6205 38.4186 17.4194 37.8184 17.1814C40.1838 14.6192 39.5779 10.2284 39.5504 10.0391C39.5051 9.72756 39.2779 9.47748 38.9795 9.39748C39.0595 9.28122 39.1358 9.16341 39.2054 9.04286C40.9972 5.93803 39.2098 1.64075 39.1329 1.45942V1.45942ZM2.09559 2.65491C3.2696 2.91593 5.81676 3.67821 6.88413 5.52724C7.75641 7.03758 7.47922 9.04895 7.1582 10.3219C5.81497 9.56967 4.25157 9.33826 3.00826 9.29763C2.65162 8.98005 2.36231 8.63262 2.14809 8.26167C1.08057 6.41202 1.72292 3.80587 2.09559 2.65491V2.65491ZM1.94332 10.8709C2.1559 10.8589 2.41497 10.8509 2.70529 10.8537C6.766 10.8974 8.77534 12.7433 8.8087 16.9687C8.76456 16.9465 8.7205 16.9244 8.67596 16.9036C7.37164 16.2954 5.73059 16.2036 3.91242 16.6333C3.73867 16.5083 3.57718 16.3735 3.43249 16.2288C1.92223 14.7185 1.87738 12.0618 1.94332 10.8709V10.8709ZM2.47232 18.7511C4.13923 18.0365 6.36498 17.5502 8.01548 18.3197C9.48512 19.0056 10.4592 20.6508 11.0222 22.172C9.96388 22.3654 8.89183 22.8652 7.82157 23.6655C7.01796 23.6872 6.30599 23.5576 5.70403 23.2765C3.76805 22.3739 2.81748 19.8923 2.47232 18.7511V18.7511ZM12.0163 29.1104C9.88068 29.1104 7.97056 27.2641 7.17507 26.3756C9.92935 23.2947 12.1834 23.6685 12.2522 23.6525C12.255 23.6518 12.2576 23.6508 12.2604 23.6501C14.2963 23.7816 16.0919 25.5212 16.8572 26.3759C16.0609 27.2651 14.1512 29.1104 12.0163 29.1104V29.1104ZM33.1159 5.527C34.1832 3.6779 36.7309 2.9157 37.9043 2.65475C38.2771 3.80634 38.9193 6.4121 37.8519 8.26144C37.6377 8.63254 37.3484 8.97997 36.9917 9.29755C35.7485 9.3381 34.1851 9.56951 32.8419 10.3218C32.5208 9.04895 32.2437 7.03743 33.1159 5.527V5.527ZM34.2958 23.2765C33.7498 23.5313 33.1127 23.6612 32.4012 23.6682C31.2607 22.8139 30.1176 22.3006 28.9906 22.137C29.557 20.6226 30.5262 19.0001 31.9844 18.3199C33.6324 17.5513 35.8531 18.0338 37.5288 18.7523C37.186 19.8931 36.2401 22.3702 34.2958 23.2765ZM36.5674 16.2288C36.4227 16.3735 36.2612 16.5083 36.0875 16.6334C34.2692 16.2037 32.6284 16.2954 31.3238 16.9038C31.2793 16.9245 31.2354 16.9466 31.1913 16.9687C31.205 15.2389 31.6006 13.2907 32.9118 12.1658C34.1473 11.107 35.9772 10.868 37.2946 10.8538C37.5849 10.851 37.8441 10.859 38.0567 10.871C38.1225 12.0625 38.0775 14.7188 36.5674 16.2288Z" fill="#25AAE2"/>
<path d="M28.5938 30.6714C29.0252 30.6714 29.375 30.3216 29.375 29.8901C29.375 29.4587 29.0252 29.1089 28.5938 29.1089C28.1623 29.1089 27.8125 29.4587 27.8125 29.8901C27.8125 30.3216 28.1623 30.6714 28.5938 30.6714Z" fill="#25AAE2"/>
</svg>
