<svg width="16" height="16" viewBox="0 0 16 16" fill="none" xmlns="http://www.w3.org/2000/svg">
<g clip-path="url(#clip0_186_1052)">
<path d="M12.6875 3.78125H8.9375C7.12841 3.78125 5.65625 5.25341 5.65625 7.0625C5.65625 7.90753 5.99544 8.726 6.59375 9.33988V10.8125C6.59375 11.002 6.70772 11.1732 6.88306 11.2455C7.05597 11.3177 7.25878 11.279 7.39394 11.1439L8.27284 10.265C8.50584 10.3177 8.72513 10.3438 8.93753 10.3438H12.6875C14.4966 10.3438 16 8.87159 16 7.0625C16 5.25341 14.4966 3.78125 12.6875 3.78125ZM8.9375 7.53125C8.67863 7.53125 8.46875 7.32137 8.46875 7.0625C8.46875 6.80356 8.67863 6.59375 8.9375 6.59375C9.19637 6.59375 9.40625 6.80356 9.40625 7.0625C9.40625 7.32137 9.19637 7.53125 8.9375 7.53125ZM10.8125 7.53125C10.5536 7.53125 10.3438 7.32137 10.3438 7.0625C10.3438 6.80356 10.5536 6.59375 10.8125 6.59375C11.0714 6.59375 11.2812 6.80356 11.2812 7.0625C11.2812 7.32137 11.0714 7.53125 10.8125 7.53125ZM12.6875 7.53125C12.4286 7.53125 12.2188 7.32137 12.2188 7.0625C12.2188 6.80356 12.4286 6.59375 12.6875 6.59375C12.9464 6.59375 13.1562 6.80356 13.1562 7.0625C13.1562 7.32137 12.9464 7.53125 12.6875 7.53125Z" fill="#333333"/>
<path d="M1.40625 16H8C8.77544 16 9.40625 15.3692 9.40625 14.5938V11.2812H8.9375C8.82487 11.2812 8.71228 11.2762 8.59831 11.2652L8.05678 11.8068C7.63456 12.2297 7.02166 12.3196 6.52144 12.1107C5.99728 11.8942 5.65625 11.3842 5.65625 10.8125V9.69509C5.04925 8.94528 4.71875 8.02425 4.71875 7.0625C4.71875 4.73616 6.61116 2.84375 8.9375 2.84375H9.40625V1.40625C9.40625 0.630813 8.77544 0 8 0H1.40625C0.630813 0 0 0.630813 0 1.40625V14.5938C0 15.3692 0.630813 16 1.40625 16ZM4.71875 1.90625C4.97762 1.90625 5.1875 2.11606 5.1875 2.375C5.1875 2.63387 4.97762 2.84375 4.71875 2.84375C4.45988 2.84375 4.25 2.63387 4.25 2.375C4.25 2.11606 4.45988 1.90625 4.71875 1.90625ZM4.25 13.1562H5.1875C5.44659 13.1562 5.65625 13.3659 5.65625 13.625C5.65625 13.8841 5.44659 14.0938 5.1875 14.0938H4.25C3.99091 14.0938 3.78125 13.8841 3.78125 13.625C3.78125 13.3659 3.99091 13.1562 4.25 13.1562Z" fill="#333333"/>
</g>
<defs>
<clipPath id="clip0_186_1052">
<rect width="16" height="16" fill="white"/>
</clipPath>
</defs>
</svg>
