<svg width="16" height="16" viewBox="0 0 16 16" fill="none" xmlns="http://www.w3.org/2000/svg">
<g clip-path="url(#clip0_58_130)">
<path d="M13.6867 6.7143C13.7059 4.45849 11.7846 2.39052 9.40387 2.10456C9.35652 2.09894 9.30494 2.09039 9.25033 2.08135C9.13247 2.06182 9.01058 2.04175 8.8876 2.04175C8.39965 2.04175 8.26922 2.38451 8.23488 2.58893C8.20149 2.78769 8.23334 2.95459 8.32939 3.08523C8.49098 3.30495 8.7753 3.34396 9.00368 3.37521C9.07061 3.38446 9.13376 3.39305 9.18663 3.40493C11.3257 3.88289 12.0459 4.63434 12.3979 6.75519C12.4065 6.80702 12.4104 6.87087 12.4145 6.93859C12.4299 7.19211 12.4619 7.71956 13.0289 7.71956H13.029C13.0762 7.71956 13.1269 7.71549 13.1797 7.70744C13.7078 7.62719 13.6912 7.14505 13.6833 6.9134C13.681 6.84816 13.6789 6.78644 13.6844 6.7454C13.6859 6.73506 13.6867 6.72468 13.6867 6.7143Z" fill="white"/>
<path d="M8.74916 1.27642C8.81252 1.28099 8.87249 1.28537 8.92243 1.29302C12.4349 1.83319 14.0503 3.49739 14.4979 7.03736C14.5055 7.09754 14.5067 7.17093 14.508 7.24864C14.5124 7.52522 14.5216 8.10057 15.1395 8.1125L15.1587 8.11269C15.3525 8.11269 15.5066 8.05426 15.6169 7.93888C15.8092 7.73769 15.7958 7.43881 15.785 7.19861C15.7824 7.13967 15.7798 7.08417 15.7805 7.03558C15.8251 3.4151 12.6912 0.132075 9.07398 0.00998758C9.05898 0.00949068 9.04467 0.0102857 9.03021 0.012323C9.0231 0.0133665 9.00993 0.0146584 8.98737 0.0146584C8.9513 0.0146584 8.90693 0.0115279 8.85987 0.00834782C8.80298 0.00447205 8.73848 0 8.67309 0C8.09704 0 7.98752 0.409441 7.97351 0.653515C7.94121 1.21759 8.4869 1.25729 8.74916 1.27642Z" fill="white"/>
<path d="M14.3284 11.6127C14.2538 11.5556 14.1765 11.4966 14.1042 11.4384C13.7207 11.1297 13.3127 10.8453 12.9181 10.5701C12.8363 10.5131 12.7544 10.456 12.6728 10.3988C12.1673 10.0437 11.7129 9.8712 11.2836 9.8712C10.7054 9.8712 10.2012 10.1907 9.78513 10.8207C9.60078 11.1 9.37713 11.2358 9.10151 11.2358C8.93852 11.2358 8.75333 11.1893 8.55114 11.0975C6.91969 10.3577 5.75472 9.2234 5.08854 7.72611C4.7665 7.00243 4.8709 6.52939 5.43766 6.14439C5.75949 5.92596 6.35855 5.5193 6.31611 4.74057C6.26806 3.85624 4.31686 1.19542 3.49475 0.893213C3.14667 0.765213 2.78096 0.76402 2.40581 0.890232C1.46071 1.20795 0.782501 1.76591 0.444315 2.5037C0.117508 3.21659 0.132265 4.05366 0.486998 4.92442C1.51249 7.44198 2.95428 9.63696 4.77246 11.4483C6.55214 13.2214 8.73952 14.6738 11.2738 15.7651C11.5022 15.8633 11.7418 15.917 11.9168 15.9561C11.9764 15.9695 12.0279 15.9809 12.0654 15.9912C12.086 15.9968 12.1073 15.9998 12.1286 16L12.1486 16.0001C12.1487 16.0001 12.1486 16.0001 12.1487 16.0001C13.3407 16.0001 14.7719 14.9109 15.2114 13.6692C15.5965 12.5819 14.8934 12.0445 14.3284 11.6127Z" fill="white"/>
<path d="M9.27637 4.15229C9.0723 4.15746 8.6476 4.16799 8.49859 4.60054C8.42887 4.80267 8.43722 4.97818 8.52343 5.12218C8.64994 5.33346 8.89233 5.3982 9.1128 5.43373C9.91235 5.56203 10.323 6.00417 10.4051 6.82504C10.4433 7.20779 10.701 7.47507 11.032 7.47507H11.032C11.0564 7.47507 11.0814 7.47363 11.1063 7.4706C11.5043 7.42325 11.6973 7.13082 11.6799 6.60153C11.6862 6.04913 11.3971 5.422 10.9054 4.92248C10.4121 4.42141 9.81734 4.13922 9.27637 4.15229Z" fill="white"/>
</g>
<defs>
<clipPath id="clip0_58_130">
<rect width="16" height="16" fill="white"/>
</clipPath>
</defs>
</svg>
