<svg width="16" height="16" viewBox="0 0 16 16" fill="none" xmlns="http://www.w3.org/2000/svg">
<path d="M13.6854 6.71417C13.7046 4.45837 11.7833 2.3904 9.40253 2.10443C9.35518 2.09882 9.3036 2.09027 9.24899 2.08123C9.13113 2.0617 9.00924 2.04163 8.88626 2.04163C8.39831 2.04163 8.26787 2.38438 8.23354 2.58881C8.20015 2.78756 8.232 2.95447 8.32805 3.0851C8.48964 3.30483 8.77396 3.34384 9.00233 3.37509C9.06926 3.38433 9.13242 3.39293 9.18529 3.40481C11.3243 3.88277 12.0446 4.63422 12.3966 6.75507C12.4052 6.80689 12.409 6.87074 12.4132 6.93847C12.4285 7.19199 12.4605 7.71944 13.0276 7.71944H13.0276C13.0748 7.71944 13.1256 7.71537 13.1784 7.70732C13.7064 7.62707 13.6899 7.14493 13.6819 6.91328C13.6797 6.84804 13.6776 6.78632 13.6831 6.74528C13.6846 6.73494 13.6853 6.72456 13.6854 6.71417Z" fill="#333333"/>
<path d="M8.74773 1.27642C8.81108 1.28099 8.87106 1.28537 8.921 1.29302C12.4335 1.83319 14.0488 3.49739 14.4965 7.03736C14.5041 7.09754 14.5053 7.17093 14.5065 7.24864C14.511 7.52522 14.5202 8.10057 15.1381 8.1125L15.1573 8.11269C15.3511 8.11269 15.5052 8.05426 15.6155 7.93888C15.8078 7.73769 15.7944 7.43881 15.7836 7.19861C15.7809 7.13967 15.7784 7.08417 15.779 7.03558C15.8237 3.4151 12.6898 0.132075 9.07255 0.00998758C9.05754 0.00949068 9.04323 0.0102857 9.02877 0.012323C9.02167 0.0133665 9.0085 0.0146584 8.98594 0.0146584C8.94987 0.0146584 8.90549 0.0115279 8.85844 0.00834782C8.80154 0.00447205 8.73705 0 8.67165 0C8.0956 0 7.98609 0.409441 7.97208 0.653515C7.93978 1.21759 8.48547 1.25729 8.74773 1.27642Z" fill="#333333"/>
<path d="M14.3278 11.6125C14.2531 11.5555 14.1759 11.4965 14.1036 11.4382C13.7201 11.1296 13.3121 10.8451 12.9175 10.57C12.8356 10.513 12.7537 10.4559 12.6721 10.3986C12.1667 10.0436 11.7123 9.87108 11.283 9.87108C10.7047 9.87108 10.2006 10.1906 9.78449 10.8206C9.60014 11.0999 9.37649 11.2357 9.10086 11.2357C8.93788 11.2357 8.75269 11.1892 8.5505 11.0974C6.91905 10.3576 5.75408 9.22328 5.0879 7.72598C4.76586 7.00231 4.87026 6.52926 5.43701 6.14427C5.75885 5.92584 6.35791 5.51918 6.31547 4.74044C6.26742 3.85612 4.31622 1.1953 3.49411 0.893091C3.14603 0.765091 2.78032 0.763898 2.40516 0.89011C1.46007 1.20782 0.78186 1.76579 0.443674 2.50357C0.116867 3.21647 0.131625 4.05354 0.486357 4.92429C1.51185 7.44186 2.95364 9.63684 4.77182 11.4482C6.5515 13.2213 8.73888 14.6737 11.2731 15.7649C11.5016 15.8632 11.7412 15.9168 11.9161 15.9559C11.9757 15.9694 12.0272 15.9808 12.0647 15.9911C12.0854 15.9967 12.1066 15.9997 12.1279 15.9999L12.148 16C12.148 16 12.148 16 12.1481 16C13.34 16 14.7712 14.9108 15.2108 13.6691C15.5959 12.5818 14.8928 12.0443 14.3278 11.6125Z" fill="#333333"/>
<path d="M9.27567 4.15223C9.0716 4.1574 8.6469 4.16793 8.49788 4.60048C8.42817 4.80261 8.43652 4.97812 8.52273 5.12212C8.64924 5.3334 8.89162 5.39814 9.1121 5.43367C9.91165 5.56197 10.3223 6.0041 10.4044 6.82497C10.4426 7.20773 10.7003 7.47501 11.0313 7.47501H11.0313C11.0557 7.47501 11.0807 7.47357 11.1056 7.47054C11.5036 7.42319 11.6966 7.13076 11.6792 6.60147C11.6855 6.04907 11.3964 5.42194 10.9047 4.92242C10.4114 4.42135 9.81664 4.13916 9.27567 4.15223Z" fill="#333333"/>
</svg>
