<svg width="50" height="50" viewBox="0 0 50 50" fill="none" xmlns="http://www.w3.org/2000/svg">
<g clip-path="url(#clip0_58_73)">
<path d="M29.2155 7.44878C28.8341 7.06753 28.2159 7.06753 27.8344 7.44878L24.0138 11.2693L22.1655 9.42104C21.7842 9.03979 21.1658 9.03979 20.7844 9.42104L17.746 12.4594C17.5629 12.6426 17.46 12.891 17.46 13.15C17.46 13.4089 17.5629 13.6573 17.746 13.8405L23.3231 19.4175C23.5139 19.6082 23.7638 19.7036 24.0137 19.7036C24.2636 19.7036 24.5136 19.6082 24.7042 19.4175L32.2537 11.868C32.4368 11.6848 32.5397 11.4365 32.5397 11.1775C32.5397 10.9185 32.4368 10.6701 32.2537 10.487L29.2155 7.44878ZM24.0139 17.3461L19.8178 13.15L21.4751 11.4927L23.3233 13.341C23.7048 13.7224 24.3231 13.7223 24.7044 13.341L28.525 9.52036L30.1823 11.1777L24.0139 17.3461Z" fill="white"/>
<path d="M48.3004 37.7425C47.8497 37.4466 47.2442 37.5721 46.9481 38.0229C46.3845 38.8813 45.6178 39.609 44.7309 40.1275L42.9445 41.1716C42.6449 41.3468 42.4607 41.6677 42.4607 42.0148V49.0235C42.4607 49.5628 42.898 50.0001 43.4373 50.0001C43.9765 50.0001 44.4138 49.5628 44.4138 49.0235V42.5753L45.7166 41.8137C46.8623 41.144 47.8527 40.2039 48.5808 39.0949C48.8768 38.6441 48.7513 38.0386 48.3004 37.7425Z" fill="white"/>
<path d="M46.2308 22.3283C45.5727 22.3283 44.9537 22.4982 44.4146 22.796V17.3245C44.4146 15.5151 42.9427 14.0431 41.1333 14.0431C40.648 14.0431 40.187 14.149 39.7722 14.3389C39.6218 13.2838 38.9674 12.3719 38.0306 11.8885C37.4238 5.23213 31.8119 0 25 0C18.1881 0 12.5762 5.23213 11.9694 11.8886C11.0325 12.372 10.3781 13.2839 10.2277 14.339C9.81289 14.1491 9.35186 14.0432 8.8666 14.0432C7.05723 14.0432 5.58525 15.5151 5.58525 17.3246V22.796C5.04629 22.4983 4.42725 22.3284 3.76924 22.3284C1.69092 22.3283 0 24.019 0 26.0974V34.3479C0 37.4085 1.64141 40.2692 4.28359 41.8137L5.58623 42.5751V49.0234C5.58623 49.5627 6.02344 50 6.56279 50C7.10215 50 7.53936 49.5627 7.53936 49.0234V42.0147C7.53936 41.6677 7.35518 41.3468 7.05557 41.1716L5.26924 40.1274C3.22383 38.9319 1.95312 36.7173 1.95312 34.348V26.0975C1.95312 25.0961 2.76777 24.2814 3.76924 24.2814C4.77061 24.2814 5.58525 25.0961 5.58525 26.0975V31.4832C5.58525 32.0225 6.02246 32.4598 6.56182 32.4598C8.89229 32.4598 10.7882 34.3558 10.7882 36.6861C10.7882 37.2255 11.2254 37.6627 11.7647 37.6627C12.3041 37.6627 12.7413 37.2255 12.7413 36.6861C12.7413 33.6108 10.4835 31.053 7.53838 30.5837V17.3244C7.53838 16.592 8.13428 15.9961 8.8666 15.9961C9.59902 15.9961 10.1948 16.592 10.1948 17.3244V26.6795C10.1948 27.2188 10.632 27.6561 11.1714 27.6561C11.7107 27.6561 12.1479 27.2188 12.1479 26.6795V15.5508C12.5573 17.6896 13.4888 19.6449 14.8044 21.2789V26.6795C14.8044 27.2188 15.2416 27.6561 15.781 27.6561C16.3203 27.6561 16.7575 27.2188 16.7575 26.6795V23.2416C17.5686 23.9011 18.4597 24.4655 19.414 24.9179V26.6795C19.414 27.2188 19.8512 27.6561 20.3905 27.6561C20.9299 27.6561 21.3671 27.2188 21.3671 26.6795V25.6583C22.2202 25.9052 23.1089 26.0677 24.0235 26.1355V35.1299C24.0235 37.9324 22.4646 40.4486 19.9553 41.6964C19.6234 41.8614 19.4136 42.2001 19.4136 42.5708V49.0234C19.4136 49.5627 19.8508 50 20.3901 50C20.9295 50 21.3667 49.5627 21.3667 49.0234V43.1538C22.9585 42.2295 24.2063 40.8829 25.0002 39.2941C25.7941 40.8829 27.0419 42.2295 28.6337 43.1538V49.0234C28.6337 49.5627 29.071 50 29.6103 50C30.1495 50 30.5868 49.5627 30.5868 49.0234V42.5709C30.5868 42.2002 30.3771 41.8615 30.045 41.6965C27.5354 40.4486 25.9766 37.9325 25.9766 35.1299V26.1355C26.8912 26.0677 27.7799 25.9052 28.633 25.6583V26.6795C28.633 27.2188 29.0703 27.6561 29.6096 27.6561C30.1489 27.6561 30.5861 27.2188 30.5861 26.6795V24.9179C31.5404 24.4655 32.4315 23.9011 33.2425 23.2416V26.6795C33.2425 27.2188 33.6798 27.6561 34.219 27.6561C34.7584 27.6561 35.1956 27.2188 35.1956 26.6795V21.2789C36.5112 19.6449 37.4427 17.6896 37.8521 15.5508V26.6796C37.8521 27.2188 38.2894 27.6562 38.8286 27.6562C39.3679 27.6562 39.8052 27.2188 39.8052 26.6796V17.3245C39.8052 16.5921 40.4011 15.9962 41.1334 15.9962C41.8657 15.9962 42.4616 16.5921 42.4616 17.3245V30.5837C39.5165 31.0531 37.2588 33.6108 37.2588 36.6861C37.2588 37.2255 37.6961 37.6627 38.2354 37.6627C38.7746 37.6627 39.2119 37.2255 39.2119 36.6861C39.2119 34.3558 41.1078 32.4598 43.4382 32.4598C43.9774 32.4598 44.4147 32.0225 44.4147 31.4832V26.0975C44.4147 25.0961 45.2295 24.2814 46.2309 24.2814C47.2322 24.2814 48.047 25.0961 48.047 26.0975V29.9536C48.047 30.4929 48.4843 30.9302 49.0235 30.9302C49.5628 30.9302 50.0001 30.4929 50.0001 29.9536V26.0975C50 24.019 48.3091 22.3283 46.2308 22.3283ZM25 24.2188C18.8613 24.2188 13.8672 19.2245 13.8672 13.0859C13.8672 6.94736 18.8613 1.95312 25 1.95312C31.1386 1.95312 36.1328 6.94736 36.1328 13.0859C36.1328 19.2245 31.1386 24.2188 25 24.2188Z" fill="white"/>
<path d="M49.0234 33.3711C48.7666 33.3711 48.5146 33.4756 48.333 33.6572C48.1514 33.8389 48.0469 34.0908 48.0469 34.3477C48.0469 34.6055 48.1513 34.8564 48.333 35.0381C48.5146 35.2207 48.7666 35.3242 49.0234 35.3242C49.2803 35.3242 49.5322 35.2207 49.7138 35.0381C49.8954 34.8564 50 34.6054 50 34.3477C50 34.0908 49.8955 33.8398 49.7138 33.6572C49.5322 33.4756 49.2803 33.3711 49.0234 33.3711Z" fill="white"/>
</g>
<defs>
<clipPath id="clip0_58_73">
<rect width="50" height="50" fill="white"/>
</clipPath>
</defs>
</svg>
