<svg width="50" height="50" viewBox="0 0 50 50" fill="none" xmlns="http://www.w3.org/2000/svg">
<path d="M35.0586 32.8125H40.918C41.4572 32.8125 41.8945 32.3752 41.8945 31.8359C41.8945 31.2967 41.4572 30.8594 40.918 30.8594H35.0586C34.5193 30.8594 34.082 31.2967 34.082 31.8359C34.082 32.3752 34.5193 32.8125 35.0586 32.8125Z" fill="white"/>
<path d="M40.918 40.625H35.0586C34.5193 40.625 34.082 41.0623 34.082 41.6016C34.082 42.1408 34.5193 42.5781 35.0586 42.5781H40.918C41.4572 42.5781 41.8945 42.1408 41.8945 41.6016C41.8945 41.0623 41.4572 40.625 40.918 40.625Z" fill="white"/>
<path d="M3.51562 7.42188C5.13105 7.42188 6.44531 8.73613 6.44531 10.3516C6.44531 10.8908 6.88262 11.3281 7.42188 11.3281C7.96113 11.3281 8.39844 10.8908 8.39844 10.3516C8.39844 8.73613 9.7127 7.42188 11.3281 7.42188C11.8674 7.42188 12.3047 6.98457 12.3047 6.44531C12.3047 5.90605 11.8674 5.46875 11.3281 5.46875C9.7127 5.46875 8.39844 4.15449 8.39844 2.53906C8.39844 1.9998 7.96113 1.5625 7.42188 1.5625C6.88262 1.5625 6.44531 1.9998 6.44531 2.53906C6.44531 4.15449 5.13105 5.46875 3.51562 5.46875C2.97637 5.46875 2.53906 5.90605 2.53906 6.44531C2.53906 6.98457 2.97637 7.42188 3.51562 7.42188ZM7.42188 5.46533C7.70059 5.83643 8.03076 6.1666 8.40186 6.44531C8.03076 6.72402 7.70059 7.0542 7.42188 7.42529C7.14316 7.0542 6.81299 6.72402 6.44189 6.44531C6.81299 6.1666 7.14316 5.83643 7.42188 5.46533Z" fill="white"/>
<path d="M31.1523 17.1875C31.6916 17.1875 32.1289 16.7502 32.1289 16.2109V15.2344H33.1055C33.6447 15.2344 34.082 14.7971 34.082 14.2578C34.082 13.7186 33.6447 13.2812 33.1055 13.2812H32.1289V12.3047C32.1289 11.7654 31.6916 11.3281 31.1523 11.3281C30.6131 11.3281 30.1758 11.7654 30.1758 12.3047V13.2812H29.1992C28.66 13.2812 28.2227 13.7186 28.2227 14.2578C28.2227 14.7971 28.66 15.2344 29.1992 15.2344H30.1758V16.2109C30.1758 16.7502 30.6131 17.1875 31.1523 17.1875Z" fill="white"/>
<path d="M40.918 5.46875C40.3787 5.46875 39.9414 5.90605 39.9414 6.44531V7.42188H38.9648C38.4256 7.42188 37.9883 7.85918 37.9883 8.39844C37.9883 8.9377 38.4256 9.375 38.9648 9.375H39.9414V10.3516C39.9414 10.8908 40.3787 11.3281 40.918 11.3281C41.4572 11.3281 41.8945 10.8908 41.8945 10.3516V9.375H42.8711C43.4104 9.375 43.8477 8.9377 43.8477 8.39844C43.8477 7.85918 43.4104 7.42188 42.8711 7.42188H41.8945V6.44531C41.8945 5.90605 41.4572 5.46875 40.918 5.46875Z" fill="white"/>
<path d="M35.0586 3.51562C35.5979 3.51562 36.0352 3.0784 36.0352 2.53906C36.0352 1.99972 35.5979 1.5625 35.0586 1.5625C34.5193 1.5625 34.082 1.99972 34.082 2.53906C34.082 3.0784 34.5193 3.51562 35.0586 3.51562Z" fill="white"/>
<path d="M49.0234 1.5625H39.4531C38.9139 1.5625 38.4766 1.9998 38.4766 2.53906C38.4766 3.07832 38.9139 3.51562 39.4531 3.51562H48.0469V19.1406H25.9766V18.1641C25.9766 15.2292 24.4936 12.4795 22.0703 10.8554V3.51562H30.6641C31.2033 3.51562 31.6406 3.07832 31.6406 2.53906C31.6406 1.9998 31.2033 1.5625 30.6641 1.5625H21.0938C20.5545 1.5625 20.1172 1.9998 20.1172 2.53906V9.87773C19.1805 9.54727 18.1892 9.375 17.1875 9.375C12.3412 9.375 8.39844 13.3178 8.39844 18.1641V23.0469H0.976562C0.437305 23.0469 0 23.4842 0 24.0234V27.9297C0 28.4689 0.437305 28.9062 0.976562 28.9062H1.95312V47.4609C1.95312 48.0002 2.39043 48.4375 2.92969 48.4375C3.46895 48.4375 3.90625 48.0002 3.90625 47.4609V28.9062H8.56641C8.96953 30.0429 10.055 30.8594 11.3281 30.8594H16.2109V32.8125H11.3281C9.7127 32.8125 8.39844 34.1268 8.39844 35.7422C8.39844 37.3576 9.7127 38.6719 11.3281 38.6719H14.2578V41.6016C14.2578 42.1408 14.6951 42.5781 15.2344 42.5781H16.2109V44.5312H11.3281C9.7127 44.5312 8.39844 45.8455 8.39844 47.4609C8.39844 48.0002 8.83574 48.4375 9.375 48.4375C9.91426 48.4375 10.3516 48.0002 10.3516 47.4609C10.3516 46.9225 10.7896 46.4844 11.3281 46.4844H16.2109V47.4609C16.2109 48.0002 16.6482 48.4375 17.1875 48.4375C17.7268 48.4375 18.1641 48.0002 18.1641 47.4609V46.4844H23.0469C23.5854 46.4844 24.0234 46.9225 24.0234 47.4609C24.0234 48.0002 24.4607 48.4375 25 48.4375C25.5393 48.4375 25.9766 48.0002 25.9766 47.4609C25.9766 45.8455 24.6623 44.5312 23.0469 44.5312H18.1641V42.5781H19.1406C19.6799 42.5781 20.1172 42.1408 20.1172 41.6016V38.6719H23.0469C24.6623 38.6719 25.9766 37.3576 25.9766 35.7422C25.9766 34.1268 24.6623 32.8125 23.0469 32.8125H18.1641V30.8594H23.0469C24.3199 30.8594 25.4055 30.0429 25.8086 28.9062H27.9297V47.4609C27.9297 48.0002 28.367 48.4375 28.9062 48.4375H47.0703C47.6096 48.4375 48.0469 48.0002 48.0469 47.4609V28.9062H49.0234C49.5627 28.9062 50 28.4689 50 27.9297V24.0234C50 23.4842 49.5627 23.0469 49.0234 23.0469H36.0352V21.0938H49.0234C49.5627 21.0938 50 20.6564 50 20.1172V2.53906C50 1.9998 49.5627 1.5625 49.0234 1.5625ZM18.1641 40.625H16.2109V38.6719H18.1641V40.625ZM24.0234 35.7422C24.0234 36.2807 23.5854 36.7188 23.0469 36.7188H11.3281C10.7896 36.7188 10.3516 36.2807 10.3516 35.7422C10.3516 35.2037 10.7896 34.7656 11.3281 34.7656H23.0469C23.5854 34.7656 24.0234 35.2037 24.0234 35.7422ZM1.95312 25H8.39844V26.9531H1.95312V25ZM23.0469 28.9062H11.3281C10.7896 28.9062 10.3516 28.4682 10.3516 27.9297V18.1641C10.3516 14.3946 13.4181 11.3281 17.1875 11.3281C21.0255 11.3281 24.0234 14.4608 24.0234 18.1641V27.9297C24.0234 28.4682 23.5854 28.9062 23.0469 28.9062ZM29.8828 46.4844V38.6719H46.0938V46.4844H29.8828ZM46.0938 36.7188H29.8828V28.9062H46.0938V36.7188ZM48.0469 26.9531H25.9766V25H48.0469V26.9531ZM34.082 23.0469H25.9766V21.0938H34.082V23.0469Z" fill="white"/>
</svg>
