<svg width="50" height="50" viewBox="0 0 50 50" fill="none" xmlns="http://www.w3.org/2000/svg">
<path d="M43.7504 9.08203C44.2897 9.08203 44.7269 8.64482 44.7269 8.10547V2.92969C44.7269 1.31426 43.4127 0 41.7972 0H2.93005C1.31462 0 0.000366211 1.31426 0.000366211 2.92969V47.0703C0.000366211 48.6857 1.31462 50 2.93005 50H41.7972C43.4127 50 44.7269 48.6857 44.7269 47.0703V44.3359C44.7269 43.7966 44.2897 43.3594 43.7504 43.3594C43.211 43.3594 42.7738 43.7966 42.7738 44.3359V47.0703C42.7738 47.6088 42.3357 48.0469 41.7972 48.0469H2.93005C2.39158 48.0469 1.95349 47.6088 1.95349 47.0703V2.92969C1.95349 2.39121 2.39158 1.95312 2.93005 1.95312H41.7972C42.3357 1.95312 42.7738 2.39121 42.7738 2.92969V8.10547C42.7738 8.64482 43.211 9.08203 43.7504 9.08203Z" fill="white"/>
<path d="M39.0634 4.6875H5.66382C5.12446 4.6875 4.68726 5.12471 4.68726 5.66406V26.0742C4.68726 26.6136 5.12446 27.0508 5.66382 27.0508C6.20317 27.0508 6.64038 26.6136 6.64038 26.0742V6.64062H38.0869V8.20312C38.0869 8.74248 38.5242 9.17969 39.0634 9.17969C39.6028 9.17969 40.04 8.74248 40.04 8.20312V5.66406C40.04 5.12471 39.6028 4.6875 39.0634 4.6875Z" fill="white"/>
<path d="M6.35388 28.9971C6.17224 28.8154 5.92126 28.7109 5.66345 28.7109C5.40662 28.7109 5.15466 28.8154 4.97302 28.9971C4.79138 29.1787 4.68689 29.4307 4.68689 29.6875C4.68689 29.9443 4.79138 30.1963 4.97302 30.3779C5.15466 30.5596 5.40662 30.6641 5.66345 30.6641C5.92126 30.6641 6.17224 30.5596 6.35388 30.3779C6.5365 30.1963 6.64002 29.9443 6.64002 29.6875C6.64002 29.4307 6.5365 29.1787 6.35388 28.9971Z" fill="white"/>
<path d="M39.0634 41.2109C38.5241 41.2109 38.0869 41.6481 38.0869 42.1875V43.3594H6.64038V33.4473C6.64038 32.9079 6.20317 32.4707 5.66382 32.4707C5.12446 32.4707 4.68726 32.9079 4.68726 33.4473V44.3359C4.68726 44.8753 5.12446 45.3125 5.66382 45.3125H39.0634C39.6028 45.3125 40.04 44.8753 40.04 44.3359V42.1875C40.04 41.6481 39.6028 41.2109 39.0634 41.2109Z" fill="white"/>
<path d="M30.2645 34.5056C29.8831 34.1241 29.2648 34.1241 28.8834 34.5055L26.9533 36.4357L25.7536 35.2359C24.9961 34.4784 23.7638 34.4784 23.0063 35.2359L22.2256 36.0165C21.8442 36.3979 21.8442 37.0162 22.2256 37.3977C22.6069 37.779 23.2253 37.779 23.6067 37.3977L24.38 36.6244L25.5797 37.8242C25.9584 38.2029 26.4559 38.3923 26.9533 38.3923C27.4508 38.3923 27.9482 38.2029 28.327 37.8242L30.2645 35.8867C30.6458 35.5054 30.6458 34.887 30.2645 34.5056Z" fill="white"/>
<path d="M49.5507 20.4864C49.9811 19.815 50.1096 18.9881 49.9032 18.2178C49.6967 17.4474 49.1721 16.7956 48.4636 16.4294C48.1564 16.2706 47.9683 15.9448 47.9844 15.5994C48.0214 14.8027 47.7193 14.0224 47.1554 13.4585C46.5916 12.8946 45.8115 12.592 45.0145 12.6295C44.6674 12.6463 44.3433 12.4574 44.1845 12.1503C43.8183 11.4419 43.1665 10.9172 42.3961 10.7107C41.6255 10.5042 40.7989 10.6328 40.1276 11.0632C39.8365 11.2499 39.4603 11.2498 39.1693 11.0632C38.4979 10.6327 37.6711 10.5043 36.9007 10.7107C36.1304 10.9172 35.4786 11.4419 35.1124 12.1503C34.9536 12.4575 34.6269 12.6451 34.2824 12.6295C33.4854 12.5923 32.7054 12.8946 32.1416 13.4585C31.5776 14.0224 31.2754 14.8027 31.3125 15.5993C31.3286 15.9448 31.1404 16.2706 30.8333 16.4294C30.1249 16.7956 29.6001 17.4473 29.3937 18.2178C29.2952 18.5852 29.2738 18.9656 29.3243 19.3358H12.2833C11.7439 19.3358 11.3067 19.773 11.3067 20.3124C11.3067 20.8517 11.7439 21.2889 12.2833 21.2889H29.8232C29.8022 21.3426 29.7779 21.3952 29.746 21.4448C29.3157 22.1162 29.1872 22.9431 29.3936 23.7135C29.4219 23.8192 29.4568 23.9225 29.4968 24.0233H12.283C11.7436 24.0233 11.3064 24.4605 11.3064 24.9999C11.3064 25.5392 11.7436 25.9764 12.283 25.9764H31.2542C31.2966 26.0881 31.3179 26.2085 31.3122 26.3318C31.2751 27.1285 31.5773 27.9088 32.1413 28.4727C32.7051 29.0366 33.4851 29.3393 34.2821 29.3017C34.6271 29.2848 34.9533 29.4737 35.1121 29.7809C35.2293 30.0079 35.3763 30.2156 35.5467 30.4005V39.5209C35.5467 39.9154 35.7841 40.2712 36.1484 40.4226C36.5125 40.5741 36.9323 40.4915 37.2121 40.2132L39.6483 37.7896L42.0845 40.2132C42.2712 40.3989 42.5202 40.4974 42.7735 40.4974C42.8997 40.4974 43.027 40.4729 43.1482 40.4225C43.5125 40.2711 43.7499 39.9153 43.7499 39.5208V30.4004C43.9203 30.2156 44.0672 30.0078 44.1845 29.7808C44.3433 29.4736 44.6695 29.2859 45.0145 29.3016C45.812 29.3393 46.5915 29.0366 47.1553 28.4726C47.7193 27.9087 48.0214 27.1284 47.9844 26.3317C47.9683 25.9863 48.1565 25.6605 48.4636 25.5017C49.172 25.1355 49.6967 24.4838 49.9032 23.7134C50.1096 22.9429 49.9811 22.1161 49.5507 21.4446C49.364 21.1537 49.364 20.7775 49.5507 20.4864ZM41.7967 37.172L40.337 35.7198C39.956 35.3408 39.3405 35.3408 38.9595 35.7198L37.4999 37.172V31.3134C38.0841 31.3409 38.6697 31.1882 39.1692 30.868C39.4603 30.6813 39.8365 30.6814 40.1275 30.868C40.5887 31.1637 41.1233 31.317 41.6626 31.317C41.7074 31.317 41.752 31.3147 41.7967 31.3126V37.172ZM48.0166 23.208C47.9511 23.4522 47.7913 23.6508 47.5667 23.7669C46.5838 24.275 45.9819 25.3174 46.0333 26.4226C46.0452 26.6753 45.9531 26.9129 45.7743 27.0918C45.5955 27.2706 45.3579 27.3624 45.1052 27.3509C43.9994 27.2997 42.9576 27.9012 42.4495 28.8842C42.3334 29.1089 42.1348 29.2686 41.8905 29.3341C41.6463 29.3994 41.3944 29.3604 41.1816 29.2239C40.7158 28.9253 40.1821 28.7761 39.6482 28.7761C39.1145 28.7761 38.5806 28.9254 38.1149 29.2239C37.902 29.3603 37.6501 29.3994 37.4059 29.3341C37.1616 29.2686 36.9631 29.1088 36.8469 28.8842C36.3388 27.9013 35.2972 27.2992 34.1912 27.3509C33.9391 27.3625 33.7009 27.2706 33.5221 27.0918C33.3432 26.9129 33.2512 26.6753 33.263 26.4225C33.2993 25.6425 33.0089 24.8946 32.4901 24.3429C32.4749 24.3262 32.4593 24.3098 32.4429 24.2942C32.2369 24.0853 31.9981 23.9056 31.7297 23.7669C31.5051 23.6508 31.3454 23.4523 31.2799 23.208C31.2145 22.9636 31.2536 22.7118 31.3901 22.499C31.9873 21.5676 31.9873 20.3638 31.3901 19.4324C31.2537 19.2195 31.2145 18.9677 31.2799 18.7233C31.3454 18.4791 31.5052 18.2805 31.7298 18.1644C32.7126 17.6563 33.3145 16.6139 33.2631 15.5087C33.2513 15.256 33.3434 15.0184 33.5222 14.8395C33.701 14.6606 33.9391 14.5688 34.1913 14.5804C35.2972 14.6317 36.339 14.0301 36.847 13.0471C36.9631 12.8224 37.1617 12.6627 37.406 12.5972C37.6502 12.5319 37.9021 12.5709 38.1149 12.7074C39.0464 13.3047 40.2502 13.3047 41.1815 12.7074C41.3944 12.571 41.6461 12.5317 41.8905 12.5972C42.1348 12.6627 42.3333 12.8225 42.4495 13.0471C42.9576 14.03 43.9999 14.632 45.1052 14.5804C45.358 14.5689 45.5955 14.6606 45.7743 14.8395C45.9532 15.0184 46.0452 15.256 46.0333 15.5087C45.982 16.6138 46.5837 17.6563 47.5667 18.1644C47.7914 18.2805 47.9511 18.479 48.0166 18.7233C48.082 18.9677 48.0429 19.2195 47.9064 19.4323C47.3092 20.3637 47.3092 21.5675 47.9064 22.4989C48.0429 22.7118 48.0821 22.9636 48.0166 23.208Z" fill="white"/>
<path d="M44.2926 18.3092C43.9113 17.9279 43.2929 17.9279 42.9116 18.3092L39.6703 21.5506L38.3799 20.2603C37.9986 19.8789 37.3802 19.8789 36.9988 20.2603C36.6174 20.6416 36.6174 21.26 36.9988 21.6414L38.9796 23.6223C39.1704 23.813 39.4203 23.9083 39.6702 23.9083C39.9201 23.9083 40.1701 23.813 40.3607 23.6223L44.2926 19.6904C44.674 19.309 44.674 18.6906 44.2926 18.3092Z" fill="white"/>
<path d="M11.9213 11.8096C11.7396 11.6279 11.4877 11.5234 11.2308 11.5234C10.974 11.5234 10.722 11.6279 10.5404 11.8096C10.3588 11.9912 10.2543 12.2432 10.2543 12.5C10.2543 12.7568 10.3588 13.0088 10.5404 13.1904C10.722 13.3721 10.974 13.4766 11.2308 13.4766C11.4877 13.4766 11.7396 13.3721 11.9213 13.1904C12.1029 13.0088 12.2074 12.7568 12.2074 12.5C12.2074 12.2432 12.1029 11.9912 11.9213 11.8096Z" fill="white"/>
<path d="M19.6286 11.5234H14.876C14.3366 11.5234 13.8994 11.9606 13.8994 12.5C13.8994 13.0394 14.3366 13.4766 14.876 13.4766H19.6286C20.168 13.4766 20.6052 13.0394 20.6052 12.5C20.6052 11.9606 20.168 11.5234 19.6286 11.5234Z" fill="white"/>
<path d="M29.574 28.7109H18.4098C17.8704 28.7109 17.4332 29.1481 17.4332 29.6875C17.4332 30.2269 17.8704 30.6641 18.4098 30.6641H29.5739C30.1133 30.6641 30.5505 30.2269 30.5505 29.6875C30.5505 29.1481 30.1134 28.7109 29.574 28.7109Z" fill="white"/>
</svg>
