<svg width="40" height="40" viewBox="0 0 40 40" fill="none" xmlns="http://www.w3.org/2000/svg">
<path d="M37.6562 9.375H36.875V7.8125C36.875 7.38102 36.5252 7.03125 36.0938 7.03125H29.666C28.7398 4.16656 26.5623 1.83008 23.7421 0.71172C23.3409 0.552657 22.887 0.748907 22.7279 1.15C22.5688 1.55109 22.7651 2.00516 23.1661 2.16422C26.3391 3.4225 28.5938 6.5232 28.5938 10.1563C28.5938 13.238 26.9216 16.0999 24.2299 17.6248C23.3074 18.1473 22.7344 19.166 22.7344 20.2836V21.0938H20.7812V12.8237L22.8962 10.7088C23.2013 10.4037 23.2013 9.90899 22.8962 9.60383C22.591 9.29875 22.0965 9.29875 21.7913 9.60383L20 11.3952L18.2087 9.60383C17.9035 9.29875 17.409 9.29875 17.1038 9.60383C16.7987 9.90891 16.7987 10.4036 17.1038 10.7088L19.2188 12.8237V21.0938H17.2656V20.282C17.2656 19.167 16.6891 18.1466 15.7609 17.6192C12.6277 15.8393 10.9599 12.3727 11.512 8.7875C11.952 5.92641 13.9338 3.33094 16.8373 2.16524C17.2377 2.00445 17.432 1.54961 17.2713 1.14914C17.1106 0.748673 16.6557 0.554376 16.2552 0.715157C13.427 1.85063 11.2486 4.18617 10.3289 7.03125H3.90625C3.47484 7.03125 3.125 7.38102 3.125 7.8125V9.375H2.34375C1.05141 9.375 0 10.4264 0 11.7188V35.3125C0 36.6048 1.05141 37.6562 2.34375 37.6562H14.5312C14.5312 38.9486 15.5827 40 16.875 40H23.125C24.4173 40 25.4688 38.9486 25.4688 37.6562H37.6562C38.9486 37.6562 40 36.6048 40 35.3125V11.7188C40 10.4264 38.9486 9.375 37.6562 9.375ZM24.2969 20.2836C24.2969 19.7278 24.5662 19.2301 25 18.9845C28.1805 17.1825 30.1562 13.7998 30.1562 10.1563C30.1562 9.63141 30.1156 9.10883 30.0362 8.59383H35.3125V32.9688H22.3438C21.7748 32.9688 21.2412 33.1223 20.7812 33.3891V27.3438H21.1719C22.895 27.3438 24.2969 25.9419 24.2969 24.2188V20.2836ZM22.7344 22.6563V24.2188C22.7344 25.0803 22.0334 25.7813 21.1719 25.7813H18.8281C17.9666 25.7813 17.2656 25.0803 17.2656 24.2188V22.6563H22.7344ZM4.6875 8.59297H9.96172C9.33055 12.8098 11.2999 16.882 14.989 18.9777C15.4295 19.228 15.7031 19.7278 15.7031 20.282V24.2188C15.7031 25.9419 17.105 27.3438 18.8281 27.3438H19.2188V33.3891C18.7588 33.1223 18.2252 32.9688 17.6562 32.9688H4.6875V8.59297ZM16.0938 37.6562C16.0938 36.7947 15.3928 36.0938 14.5312 36.0938H2.34375C1.91297 36.0938 1.5625 35.7433 1.5625 35.3125V11.7188C1.5625 11.288 1.91297 10.9375 2.34375 10.9375H3.125V33.75C3.125 34.1815 3.47484 34.5312 3.90625 34.5312H17.6562C18.5178 34.5312 19.2188 35.2322 19.2188 36.0938V38.4375H16.875C16.4442 38.4375 16.0938 38.087 16.0938 37.6562ZM38.4375 35.3125C38.4375 35.7433 38.087 36.0938 37.6562 36.0938H25.4688C24.6072 36.0938 23.9062 36.7947 23.9062 37.6562C23.9062 38.087 23.5558 38.4375 23.125 38.4375H20.7812V36.0938C20.7812 35.2322 21.4822 34.5312 22.3438 34.5312H36.0938C36.5252 34.5312 36.875 34.1815 36.875 33.75V10.9375H37.6562C38.087 10.9375 38.4375 11.288 38.4375 11.7188V35.3125Z" fill="#25AAE2"/>
</svg>
