<svg width="40" height="40" viewBox="0 0 40 40" fill="none" xmlns="http://www.w3.org/2000/svg">
<path d="M30.5267 26.5319C33.4996 23.7293 35.3586 19.7574 35.3586 15.3589C35.3586 11.8581 34.2113 8.56073 32.0408 5.82339C29.9353 3.16808 26.9742 1.25964 23.7031 0.449641C23.2848 0.346203 22.8608 0.60136 22.757 1.02019C22.6534 1.43902 22.9087 1.86261 23.3277 1.96636C29.4913 3.49261 33.7961 8.99988 33.7961 15.3589C33.7961 22.9664 27.607 29.1554 19.9996 29.1554C12.3923 29.1554 6.20312 22.9664 6.20312 15.3589C6.20312 8.99988 10.508 3.49261 16.6716 1.96636C17.0905 1.86261 17.3459 1.43902 17.2422 1.02019C17.1384 0.60136 16.7148 0.345813 16.296 0.449641C13.0249 1.25964 10.0639 3.16808 7.95844 5.82339C5.78789 8.56073 4.64062 11.8581 4.64062 15.3589C4.64062 19.7573 6.49961 23.7293 9.47242 26.5318L5.38227 34.3543C5.18281 34.7358 5.32953 35.2068 5.71031 35.4075L5.73844 35.4223C5.91313 35.5144 6.11609 35.5368 6.30688 35.4853L11.9755 33.9506L13.9506 39.4814C14.055 39.7737 14.3226 39.9765 14.6322 39.9981C14.6504 39.9993 14.6685 40 14.6866 40C14.9758 40 15.2433 39.8396 15.3787 39.5807L19.9996 30.7432L24.6206 39.5807C24.7559 39.8396 25.0235 40 25.3127 40C25.3308 40 25.3489 39.9993 25.367 39.9981C25.6767 39.9766 25.9442 39.7737 26.0487 39.4814L28.0237 33.9506L33.6923 35.4853C33.8829 35.5371 34.086 35.5146 34.2608 35.4224L34.2889 35.4075C34.6697 35.2068 34.8164 34.7359 34.6169 34.3544L30.5267 26.5319ZM14.8215 37.2742L13.2041 32.745C13.067 32.3611 12.6575 32.1471 12.2641 32.2537L7.58086 33.5217L10.6935 27.5688C12.8528 29.2185 15.4604 30.3092 18.2991 30.6233L14.8215 37.2742ZM27.7351 32.2537C27.3416 32.1472 26.9323 32.3611 26.7952 32.745L25.1777 37.2742L21.7001 30.6233C24.5387 30.3092 27.1463 29.2185 29.3056 27.5688L32.4183 33.5217L27.7351 32.2537Z" fill="#25AAE2"/>
<path d="M20 1.5625C20.4315 1.5625 20.7812 1.21272 20.7812 0.78125C20.7812 0.349778 20.4315 0 20 0C19.5685 0 19.2188 0.349778 19.2188 0.78125C19.2188 1.21272 19.5685 1.5625 20 1.5625Z" fill="#25AAE2"/>
<path d="M8.54688 15.359C8.54688 21.674 13.6845 26.8117 19.9996 26.8117C26.3147 26.8117 31.4523 21.6741 31.4523 15.359C31.4523 9.04391 26.3147 3.90625 19.9996 3.90625C13.6845 3.90625 8.54688 9.04391 8.54688 15.359ZM29.8898 15.359C29.8898 20.8125 25.4531 25.2492 19.9996 25.2492C14.5461 25.2492 10.1094 20.8125 10.1094 15.359C10.1094 9.90547 14.5461 5.46875 19.9996 5.46875C25.4531 5.46875 29.8898 9.90547 29.8898 15.359Z" fill="#25AAE2"/>
<path d="M19.2961 11.1549L17.6866 14.4855L14.0791 13.6673C13.797 13.6034 13.503 13.7003 13.3143 13.9193C13.1257 14.1383 13.0734 14.4437 13.1784 14.713L14.6323 18.4418H14.5308C14.0993 18.4418 13.7495 18.7915 13.7495 19.223C13.7495 19.6545 14.0993 20.0043 14.5308 20.0043H25.4683C25.8997 20.0043 26.2495 19.6545 26.2495 19.223C26.2495 18.7915 25.8997 18.4418 25.4683 18.4418H25.3667L26.8207 14.713C26.9258 14.4437 26.8735 14.1383 26.6848 13.9193C26.4963 13.7002 26.2021 13.6034 25.9201 13.6672L22.3126 14.4855L20.703 11.1548C20.5726 10.885 20.2992 10.7135 19.9995 10.7135C19.6998 10.7136 19.4265 10.8851 19.2961 11.1549ZM21.176 15.7248C21.3343 16.0523 21.6977 16.2272 22.0523 16.1467L24.8303 15.5166L23.6898 18.4419H16.3095L15.1689 15.5166L17.947 16.1467C18.3016 16.227 18.6649 16.0523 18.8232 15.7248L19.9995 13.2903L21.176 15.7248Z" fill="#25AAE2"/>
</svg>
