<svg width="40" height="40" viewBox="0 0 40 40" fill="none" xmlns="http://www.w3.org/2000/svg">
<path d="M24.6875 20.3125C24.2562 20.3125 23.9062 20.6625 23.9062 21.0938C23.9062 21.525 24.2562 21.875 24.6875 21.875C25.1187 21.875 25.4688 21.525 25.4688 21.0938C25.4688 20.6625 25.1187 20.3125 24.6875 20.3125Z" fill="#25AAE2"/>
<path d="M0.194126 18.4842C0.196235 18.4866 0.19811 18.4894 0.200298 18.4917C0.20061 18.492 0.200845 18.4924 0.201157 18.4928L19.4199 39.7428C19.5631 39.9012 19.7801 40 19.9994 40C20.2179 40 20.4345 39.9023 20.5788 39.7428L39.7976 18.4928C39.7979 18.4925 39.7981 18.4921 39.7984 18.4917C39.8006 18.4893 39.8024 18.4866 39.8046 18.4842C40.055 18.1994 40.0615 17.781 39.8343 17.4895C39.8321 17.4867 39.8305 17.4835 39.8282 17.4807L33.5782 9.6682C33.43 9.48289 33.2055 9.375 32.9681 9.375C29.7832 9.375 9.6221 9.375 7.03061 9.375C6.79327 9.375 6.56881 9.48289 6.42053 9.6682L0.170532 17.4807C0.168266 17.4835 0.166704 17.4866 0.164438 17.4895C-0.065171 17.7841 -0.0534523 18.2026 0.194126 18.4842ZM15.7541 10.9375H24.2445L27.9945 17.1875H12.0041L15.7541 10.9375ZM11.8229 18.75H28.1757L19.9993 37.2833L11.8229 18.75ZM29.8836 18.75H37.4582L22.6697 35.1014L29.8836 18.75ZM10.1151 18.75L17.3289 35.1014L2.54045 18.75H10.1151ZM37.5926 17.1875H29.8166L26.0666 10.9375H32.5926L37.5926 17.1875ZM7.406 10.9375H13.9319L10.1819 17.1875H2.406L7.406 10.9375Z" fill="#25AAE2"/>
<path d="M21.5621 20.3125H15.7637C15.3322 20.3125 14.9824 20.6623 14.9824 21.0938C14.9824 21.5252 15.3322 21.875 15.7637 21.875H21.5621C21.9936 21.875 22.3434 21.5252 22.3434 21.0938C22.3434 20.6623 21.9936 20.3125 21.5621 20.3125Z" fill="#25AAE2"/>
<path d="M20 6.25C20.4315 6.25 20.7812 5.90023 20.7812 5.46875V0.78125C20.7812 0.349766 20.4315 0 20 0C19.5685 0 19.2188 0.349766 19.2188 0.78125V5.46875C19.2188 5.90023 19.5685 6.25 20 6.25Z" fill="#25AAE2"/>
<path d="M25.24 6.02114L28.365 2.89614C28.6701 2.59106 28.6701 2.09637 28.365 1.79122C28.0599 1.48606 27.5652 1.48614 27.2601 1.79122L24.1351 4.91622C23.83 5.22129 23.83 5.71598 24.1351 6.02114C24.4401 6.32622 24.9348 6.32629 25.24 6.02114Z" fill="#25AAE2"/>
<path d="M14.7601 6.02123C15.0652 6.32631 15.5599 6.32631 15.865 6.02123C16.1701 5.71615 16.1701 5.22147 15.865 4.91631L12.74 1.79131C12.4349 1.48623 11.9402 1.48623 11.6351 1.79131C11.3299 2.09639 11.33 2.59107 11.6351 2.89623L14.7601 6.02123Z" fill="#25AAE2"/>
</svg>
